REM DIRINDEX 1\2,1\3\7,1\3\8,1\4\9,1\4\10,1\4\11,1\5\12,1\5\13,1\5\14,1\6\15,1\6\16,1\6\17
REM DIRNAME "folder01","folder02","folder03","folder04","folder05","folder06","folder07","folder08","folder09","folder10","folder11","folder12","folder13","folder14","folder15","folder16","folder17"
TITLE ""
FILE "2Q_j_1635-1648.mp3" MP3
  TRACK 01 AUDIO
    TITLE "9:cjc174_1125"
    INDEX 01 00:00:00
  TRACK 02 AUDIO
    TITLE "0:"
    INDEX 01 00:01:43
  TRACK 03 AUDIO
    TITLE "10:cjc174_1126"
    INDEX 01 00:02:19
  TRACK 04 AUDIO
    TITLE "0:"
    INDEX 01 00:03:46
  TRACK 05 AUDIO
    TITLE "11:cjc174_1127"
    INDEX 01 00:04:16
  TRACK 06 AUDIO
    TITLE "0:"
    INDEX 01 00:07:32
  TRACK 07 AUDIO
    TITLE "9:cjc174_1128"
    INDEX 01 00:08:02
  TRACK 08 AUDIO
    TITLE "0:"
    INDEX 01 00:09:19
  TRACK 09 AUDIO
    TITLE "10:cjc174_1129"
    INDEX 01 00:09:64
  TRACK 10 AUDIO
    TITLE "0:"
    INDEX 01 00:11:04
  TRACK 11 AUDIO
    TITLE "11:cjc174_1130"
    INDEX 01 00:11:49
  TRACK 12 AUDIO
    TITLE "0:"
    INDEX 01 00:16:11
  TRACK 13 AUDIO
    TITLE "9:cjc174_1131"
    INDEX 01 00:16:58
  TRACK 14 AUDIO
    TITLE "0:"
    INDEX 01 00:17:73
  TRACK 15 AUDIO
    TITLE "10:cjc174_1132"
    INDEX 01 00:18:43
  TRACK 16 AUDIO
    TITLE "0:"
    INDEX 01 00:21:16
  TRACK 17 AUDIO
    TITLE "11:cjc174_1133"
    INDEX 01 00:21:59
  TRACK 18 AUDIO
    TITLE "0:"
    INDEX 01 00:26:41
  TRACK 19 AUDIO
    TITLE "9:cjc174_1134"
    INDEX 01 00:27:13
  TRACK 20 AUDIO
    TITLE "0:"
    INDEX 01 00:29:04
  TRACK 21 AUDIO
    TITLE "10:cjc174_1135"
    INDEX 01 00:29:51
  TRACK 22 AUDIO
    TITLE "0:"
    INDEX 01 00:31:66
  TRACK 23 AUDIO
    TITLE "11:cjc174_1136"
    INDEX 01 00:32:36
  TRACK 24 AUDIO
    TITLE "0:"
    INDEX 01 00:35:22
  TRACK 25 AUDIO
    TITLE "9:cjc174_1137"
    INDEX 01 00:35:71
  TRACK 26 AUDIO
    TITLE "0:"
    INDEX 01 00:37:51
  TRACK 27 AUDIO
    TITLE "10:cjc174_1138"
    INDEX 01 00:38:21
  TRACK 28 AUDIO
    TITLE "0:"
    INDEX 01 00:40:45
  TRACK 29 AUDIO
    TITLE "11:cjc174_1139"
    INDEX 01 00:41:15
  TRACK 30 AUDIO
    TITLE "0:"
    INDEX 01 00:45:70
  TRACK 31 AUDIO
    TITLE "9:cjc174_1140"
    INDEX 01 00:46:42
  TRACK 32 AUDIO
    TITLE "0:"
    INDEX 01 00:47:59
  TRACK 33 AUDIO
    TITLE "10:cjc174_1141"
    INDEX 01 00:48:33
  TRACK 34 AUDIO
    TITLE "0:"
    INDEX 01 00:51:70
  TRACK 35 AUDIO
    TITLE "11:cjc174_1142"
    INDEX 01 00:52:40
  TRACK 36 AUDIO
    TITLE "0:"
    INDEX 01 00:56:52
  TRACK 37 AUDIO
    TITLE "9:cjc174_1143"
    INDEX 01 00:57:24
  TRACK 38 AUDIO
    TITLE "0:"
    INDEX 01 00:58:63
  TRACK 39 AUDIO
    TITLE "10:cjc174_1144"
    INDEX 01 00:59:33
  TRACK 40 AUDIO
    TITLE "0:"
    INDEX 01 01:04:71
  TRACK 41 AUDIO
    TITLE "11:cjc174_1145"
    INDEX 01 01:05:41
  TRACK 42 AUDIO
    TITLE "0:"
    INDEX 01 01:08:32
  TRACK 43 AUDIO
    TITLE "9:cjc174_1146"
    INDEX 01 01:09:10
  TRACK 44 AUDIO
    TITLE "0:"
    INDEX 01 01:10:31
  TRACK 45 AUDIO
    TITLE "10:cjc174_1147"
    INDEX 01 01:11:01
  TRACK 46 AUDIO
    TITLE "0:"
    INDEX 01 01:13:48
  TRACK 47 AUDIO
    TITLE "11:cjc174_1148"
    INDEX 01 01:14:18
  TRACK 48 AUDIO
    TITLE "0:"
    INDEX 01 01:20:15
  TRACK 49 AUDIO
    TITLE "9:cjc174_1149"
    INDEX 01 01:20:70
  TRACK 50 AUDIO
    TITLE "0:"
    INDEX 01 01:22:51
  TRACK 51 AUDIO
    TITLE "10:cjc174_1150"
    INDEX 01 01:23:31
  TRACK 52 AUDIO
    TITLE "0:"
    INDEX 01 01:25:10
  TRACK 53 AUDIO
    TITLE "11:cjc174_1151"
    INDEX 01 01:25:58
  TRACK 54 AUDIO
    TITLE "0:"
    INDEX 01 01:28:70
  TRACK 55 AUDIO
    TITLE "9:cjc174_1152"
    INDEX 01 01:29:42
  TRACK 56 AUDIO
    TITLE "0:"
    INDEX 01 01:30:72
  TRACK 57 AUDIO
    TITLE "10:cjc174_1153"
    INDEX 01 01:31:44
  TRACK 58 AUDIO
    TITLE "0:"
    INDEX 01 01:35:50
  TRACK 59 AUDIO
    TITLE "11:cjc174_1154"
    INDEX 01 01:36:20
  TRACK 60 AUDIO
    TITLE "0:"
    INDEX 01 01:40:71
  TRACK 61 AUDIO
    TITLE "9:cjc174_1155"
    INDEX 01 01:41:41
  TRACK 62 AUDIO
    TITLE "0:"
    INDEX 01 01:42:72
  TRACK 63 AUDIO
    TITLE "10:cjc174_1156"
    INDEX 01 01:43:42
  TRACK 64 AUDIO
    TITLE "0:"
    INDEX 01 01:47:55
  TRACK 65 AUDIO
    TITLE "11:cjc174_1157"
    INDEX 01 01:48:27
  TRACK 66 AUDIO
    TITLE "0:"
    INDEX 01 01:52:17
  TRACK 67 AUDIO
    TITLE "9:cjc174_1158"
    INDEX 01 01:52:62
  TRACK 68 AUDIO
    TITLE "0:"
    INDEX 01 01:54:28
  TRACK 69 AUDIO
    TITLE "10:cjc174_1159"
    INDEX 01 01:54:73
  TRACK 70 AUDIO
    TITLE "0:"
    INDEX 01 01:56:58
  TRACK 71 AUDIO
    TITLE "11:cjc174_1160"
    INDEX 01 01:57:28
  TRACK 72 AUDIO
    TITLE "0:"
    INDEX 01 01:59:74
  TRACK 73 AUDIO
    TITLE "9:cjc174_1161"
    INDEX 01 02:00:46
  TRACK 74 AUDIO
    TITLE "0:"
    INDEX 01 02:02:02
  TRACK 75 AUDIO
    TITLE "10:cjc174_1162"
    INDEX 01 02:02:45
  TRACK 76 AUDIO
    TITLE "0:"
    INDEX 01 02:06:15
  TRACK 77 AUDIO
    TITLE "11:cjc174_1163"
    INDEX 01 02:06:58
  TRACK 78 AUDIO
    TITLE "0:"
    INDEX 01 02:09:47
  TRACK 79 AUDIO
    TITLE "9:cjc174_1164"
    INDEX 01 02:10:17
  TRACK 80 AUDIO
    TITLE "0:"
    INDEX 01 02:11:44
  TRACK 81 AUDIO
    TITLE "10:cjc174_1165"
    INDEX 01 02:12:14
  TRACK 82 AUDIO
    TITLE "0:"
    INDEX 01 02:14:11
  TRACK 83 AUDIO
    TITLE "11:cjc174_1166"
    INDEX 01 02:14:58
  TRACK 84 AUDIO
    TITLE "0:"
    INDEX 01 02:18:36
